<?xml version="1.0" encoding="utf-8"?>
<!-- Generator: Adobe Illustrator 23.0.3, SVG Export Plug-In . SVG Version: 6.00 Build 0)  -->
<svg version="1.1" id="Layer_1" xmlns="http://www.w3.org/2000/svg" xmlns:xlink="http://www.w3.org/1999/xlink" x="0px" y="0px"
	 viewBox="0 0 20 20" style="enable-background:new 0 0 20 20;" xml:space="preserve">
<style type="text/css">
	.st0{fill:#FFFFFF;}
</style>
<path class="st0" d="M14.6,11c0.7,0,1.4-0.4,1.7-1l3.6-6.5C20.3,2.8,19.8,2,19,2H4.2L3.3,0H0v2h2l3.6,7.6L4.3,12
	c-0.7,1.3,0.2,3,1.8,3h12v-2H6l1.1-2H14.6z M5.2,4h12.1l-2.8,5h-7L5.2,4z M6,16c-1.1,0-2,0.9-2,2s0.9,2,2,2s2-0.9,2-2S7.1,16,6,16z
	 M16,16c-1.1,0-2,0.9-2,2s0.9,2,2,2s2-0.9,2-2S17.1,16,16,16z"/>
</svg>
