<?xml version="1.0" encoding="utf-8"?>
<!-- Generator: Adobe Illustrator 23.0.3, SVG Export Plug-In . SVG Version: 6.00 Build 0)  -->
<svg version="1.1" id="Layer_1" xmlns="http://www.w3.org/2000/svg" xmlns:xlink="http://www.w3.org/1999/xlink" x="0px" y="0px"
	 viewBox="0 0 30 30" style="enable-background:new 0 0 30 30;" xml:space="preserve">
<style type="text/css">
	.st0{fill:#FFFFFF;}
</style>
<g>
	<path class="st0" d="M19.5,23.3H16c-0.1,0-0.2,0.1-0.2,0.2v4.3c0,0.1,0.1,0.3,0.3,0.2c1.4-0.6,2.7-2.2,3.6-4.5
		C19.7,23.5,19.6,23.3,19.5,23.3z"/>
	<path class="st0" d="M8.5,23.5c0-0.1-0.1-0.1-0.2-0.1H5.1c-0.2,0-0.3,0.2-0.2,0.3c1.4,1.6,3.1,2.9,5.1,3.7c0.2,0.1,0.4-0.2,0.2-0.3
		C9.6,26,9,24.8,8.5,23.5z"/>
	<path class="st0" d="M24.9,23.3h-3.2c-0.1,0-0.2,0.1-0.2,0.1C21,24.8,20.4,26,19.7,27c-0.1,0.2,0,0.4,0.2,0.3
		c2-0.8,3.7-2.1,5.1-3.7C25.2,23.5,25.1,23.3,24.9,23.3z"/>
	<path class="st0" d="M14,15.8H9c-0.1,0-0.2,0.1-0.2,0.2c0.1,2,0.4,3.8,0.8,5.4c0,0.1,0.1,0.2,0.2,0.2H14c0.1,0,0.2-0.1,0.2-0.2V16
		C14.2,15.9,14.1,15.8,14,15.8z"/>
	<path class="st0" d="M14,23.3h-3.4c-0.1,0-0.2,0.2-0.2,0.3c0.9,2.3,2.2,3.9,3.6,4.5c0.1,0.1,0.3-0.1,0.3-0.2v-4.3
		C14.2,23.4,14.1,23.3,14,23.3z"/>
	<path class="st0" d="M13.9,1.9c-1.4,0.6-2.6,2.2-3.6,4.5c-0.1,0.1,0,0.3,0.2,0.3H14c0.1,0,0.2-0.1,0.2-0.2V2.1
		C14.2,2,14,1.9,13.9,1.9z"/>
	<path class="st0" d="M26.4,8.4h-4.1c-0.1,0-0.2,0.1-0.2,0.3c0.4,1.6,0.6,3.4,0.7,5.4c0,0.1,0.1,0.2,0.2,0.2h5
		c0.1,0,0.2-0.1,0.2-0.2c-0.2-2-0.7-3.8-1.7-5.5C26.5,8.4,26.5,8.4,26.4,8.4z"/>
	<path class="st0" d="M14,8.4H9.8c-0.1,0-0.2,0.1-0.2,0.2c-0.4,1.6-0.7,3.5-0.8,5.4c0,0.1,0.1,0.2,0.2,0.2H14c0.1,0,0.2-0.1,0.2-0.2
		V8.6C14.2,8.4,14.1,8.4,14,8.4z"/>
	<path class="st0" d="M28,15.8h-5c-0.1,0-0.2,0.1-0.2,0.2c-0.1,1.9-0.3,3.7-0.7,5.4c0,0.1,0.1,0.3,0.2,0.3h4.1c0.1,0,0.1,0,0.2-0.1
		c0.9-1.6,1.5-3.5,1.7-5.5C28.2,15.9,28.1,15.8,28,15.8z"/>
	<path class="st0" d="M2,14.2h5c0.1,0,0.2-0.1,0.2-0.2c0.1-1.9,0.3-3.7,0.7-5.4c0-0.1-0.1-0.3-0.2-0.3H3.6c-0.1,0-0.1,0-0.2,0.1
		c-0.9,1.6-1.5,3.5-1.7,5.5C1.8,14.1,1.9,14.2,2,14.2z"/>
	<path class="st0" d="M5.1,6.7h3.2c0.1,0,0.2-0.1,0.2-0.1C9,5.2,9.6,4,10.3,3c0.1-0.2,0-0.4-0.2-0.3C8,3.5,6.3,4.7,4.9,6.3
		C4.8,6.5,4.9,6.7,5.1,6.7z"/>
	<path class="st0" d="M16,21.6h4.1c0.1,0,0.2-0.1,0.2-0.2c0.4-1.6,0.7-3.5,0.8-5.4c0-0.1-0.1-0.2-0.2-0.2H16c-0.1,0-0.2,0.1-0.2,0.2
		v5.4C15.8,21.6,15.9,21.6,16,21.6z"/>
	<path class="st0" d="M21.5,6.5c0,0.1,0.1,0.1,0.2,0.1h3.2c0.2,0,0.3-0.2,0.2-0.3C23.7,4.7,22,3.5,20,2.7c-0.2-0.1-0.4,0.2-0.2,0.3
		C20.4,4,21,5.2,21.5,6.5z"/>
	<path class="st0" d="M16,6.7h3.4c0.1,0,0.2-0.2,0.2-0.3c-0.9-2.3-2.2-3.9-3.6-4.5C16,1.9,15.8,2,15.8,2.1v4.3
		C15.8,6.6,15.9,6.7,16,6.7z"/>
	<path class="st0" d="M16,14.2H21c0.1,0,0.2-0.1,0.2-0.2c-0.1-2-0.4-3.8-0.8-5.4c0-0.1-0.1-0.2-0.2-0.2H16c-0.1,0-0.2,0.1-0.2,0.2
		V14C15.8,14.1,15.9,14.2,16,14.2z"/>
	<path class="st0" d="M7.9,21.4C7.5,19.8,7.2,18,7.2,16c0-0.1-0.1-0.2-0.2-0.2H2c-0.1,0-0.2,0.1-0.2,0.2c0.2,2,0.7,3.8,1.7,5.5
		c0,0.1,0.1,0.1,0.2,0.1h4.1C7.8,21.6,7.9,21.5,7.9,21.4z"/>
</g>
</svg>
