<?xml version="1.0" encoding="utf-8"?>
<!-- Generator: Adobe Illustrator 23.0.3, SVG Export Plug-In . SVG Version: 6.00 Build 0)  -->
<svg version="1.1" id="Layer_1" xmlns="http://www.w3.org/2000/svg" xmlns:xlink="http://www.w3.org/1999/xlink" x="0px" y="0px"
	 viewBox="0 0 51.1 51.1" style="enable-background:new 0 0 51.1 51.1;" xml:space="preserve">
<style type="text/css">
	.st0{fill:#A6C740;}
	.st1{fill:none;stroke:#FFFFFF;stroke-width:0.5;stroke-miterlimit:10;}
	.st2{fill:#FFFFFF;}
</style>
<g>
	<g>
		
			<image style="overflow:visible;opacity:0.75;" width="49" height="49" xlink:href="6BD5BC8D.png"  transform="matrix(1 0 0 1 1.5415 3.5415)">
		</image>
		<g>
			<circle class="st0" cx="25.6" cy="21.2" r="20.8"/>
			<circle class="st1" cx="25.6" cy="21.2" r="20.8"/>
		</g>
	</g>
	<g>
		<path class="st2" d="M36,15.5H15.2c-1.4,0-2.5-1.1-2.5-2.5v0c0-1.4,1.1-2.5,2.5-2.5H36c1.4,0,2.5,1.1,2.5,2.5v0
			C38.6,14.4,37.4,15.5,36,15.5z"/>
		<path class="st2" d="M36,23.7H15.2c-1.4,0-2.5-1.1-2.5-2.5v0c0-1.4,1.1-2.5,2.5-2.5H36c1.4,0,2.5,1.1,2.5,2.5v0
			C38.6,22.6,37.4,23.7,36,23.7z"/>
		<path class="st2" d="M35.9,31.9H15.1c-1.4,0-2.5-1.1-2.5-2.5v0c0-1.4,1.1-2.5,2.5-2.5h20.8c1.4,0,2.5,1.1,2.5,2.5v0
			C38.5,30.8,37.3,31.9,35.9,31.9z"/>
	</g>
</g>
</svg>
