<svg xmlns="http://www.w3.org/2000/svg" viewBox="0 0 519.28 64.11"><defs><style>.cls-1,.cls-2{isolation:isolate;}.cls-2{font-size:48px;font-family:Audiowide-Regular, Audiowide;}.cls-2,.cls-6{fill:#fff200;}.cls-3{letter-spacing:-0.01em;}.cls-4{letter-spacing:-0.01em;}.cls-5{letter-spacing:0em;}</style></defs><title>logo</title><g id="Layer_2" data-name="Layer 2"><g id="Layer_1-2" data-name="Layer 1"><g id="Logo"><g id="Rebel_Outfitters" data-name="Rebel Outfitters" class="cls-1"><text class="cls-2" transform="translate(74.53 50.42)"><tspan class="cls-3">R</tspan><tspan x="39.45" y="0">ebe</tspan><tspan class="cls-4" x="135.3" y="0">l</tspan><tspan x="150.05" y="0" xml:space="preserve"> Outfit</tspan><tspan class="cls-5" x="331.5" y="0">t</tspan><tspan x="358.45" y="0">ers</tspan></text></g><path id="millennium-falcon-svgrepo-com" class="cls-6" d="M48.59,19.72,36.93,31.08a10.87,10.87,0,0,0-4.74-4.62L43.85,15.1a26.07,26.07,0,0,1,2.52,2.16A24.65,24.65,0,0,1,48.59,19.72ZM22.65,40.35a6.49,6.49,0,0,0,9,0,6.09,6.09,0,0,0,.16-8.62l-.16-.16a6.51,6.51,0,0,0-9,0,6.11,6.11,0,0,0-.15,8.63Zm41.83-6.82,0,0a3.69,3.69,0,0,0-5.14,0L56.4,36.35h0l7.55-17.17a2.19,2.19,0,0,0-.48-2.46L60.8,14.17,38.13,36.25a10.51,10.51,0,0,1-3.2,7.28,11.18,11.18,0,0,1-15.53,0,10.52,10.52,0,0,1-.26-14.86,3.19,3.19,0,0,1,.26-.26,11.09,11.09,0,0,1,7.49-3.13L49.55,3.21,46.93.65A2.36,2.36,0,0,0,44.4.18L19.33,10.64a27.38,27.38,0,0,0-6.64,2.94,2.24,2.24,0,0,0-1.06,1.65A2.19,2.19,0,0,0,12,16.74L7.42,21.21a2.36,2.36,0,0,0-1.55-.37,2.3,2.3,0,0,0-1.69,1A25.94,25.94,0,0,0,8,54.68a27.35,27.35,0,0,0,19.2,7.74h0a27.65,27.65,0,0,0,14.49-4.07,2.21,2.21,0,0,0,1.06-1.64,2.23,2.23,0,0,0-.38-1.51l4.59-4.48a2.33,2.33,0,0,0,3.24-.65,25.83,25.83,0,0,0,2.7-5.51l4.25.15h.09A2.32,2.32,0,0,0,58.83,44l0,0,5.61-5.47a3.47,3.47,0,0,0,.1-4.91l-.09-.09Z"/></g></g></g></svg>